<?xml version="1.0" encoding="utf-8"?>
<!-- Svg Vector Icons : http://www.onlinewebfonts.com/icon -->
<!DOCTYPE svg PUBLIC "-//W3C//DTD SVG 1.1//EN" "http://www.w3.org/Graphics/SVG/1.1/DTD/svg11.dtd">
<svg version="1.1" xmlns="http://www.w3.org/2000/svg" xmlns:xlink="http://www.w3.org/1999/xlink" x="0px" y="0px" viewBox="0 0 256 256" enable-background="new 0 0 256 256" xml:space="preserve">
<metadata> Svg Vector Icons : http://www.onlinewebfonts.com/icon </metadata>
<g><g><path fill="#000000" d="M10,180.7c3.5-2.6,6.6-6.4,10.5-7.6c7-2.1,13.4,3.9,13.9,12.2c0.2,3,0,5.9,0,8.9c0,2.7,0,5.4,0,9.6c2.5-2.3,4-3.6,5.5-5.1c17.7-17.7,35.4-35.5,53.3-53.1c2.3-2.2,5.3-4.3,8.4-5c5.5-1.3,10.2,1.1,12.7,6.3c2.7,5.4,1.5,10.4-2.7,14.6c-13.2,13.3-26.5,26.6-39.8,39.8c-6.3,6.2-12.7,12.4-19,18.5c0.2,0.6,0.3,1.2,0.5,1.7c5.9,0,11.9-0.2,17.8,0.1c5.6,0.3,9.7,3.1,11.4,8.7c1.6,4.9,0,8.9-3.4,12.4c-1.2,1.2-2.6,2.2-4,3.3c-21.7,0-43.5,0-65.2,0C10,224.2,10,202.5,10,180.7z"/><path fill="#000000" d="M180.8,246c-2.6-3.5-6.4-6.6-7.6-10.5c-2.2-6.9,3.9-13.4,12.2-13.9c5.7-0.3,11.3-0.1,18.5-0.1c-2.3-2.5-3.7-4.1-5.1-5.5c-17.6-17.6-35.2-35.1-52.7-52.9c-2.3-2.3-4.5-5.2-5.3-8.2c-1.5-5.5,0.7-10.1,5.7-13.1c4.8-2.9,10.5-2,15.1,2.5c13.6,13.5,27.1,27,40.6,40.6c5.9,6,11.8,12.1,17.6,18.2c0.6-0.2,1.2-0.4,1.7-0.6c0-5.9-0.2-11.9,0.1-17.8c0.2-5.3,2.8-9.3,8.1-11.2c5-1.8,9.3-0.5,12.9,3.2c1.2,1.2,2.2,2.6,3.3,4c0,21.7,0,43.5,0,65.2C224.3,246,202.5,246,180.8,246z"/><path fill="#000000" d="M74.1,10c5.6,2.6,9.6,6.5,9.1,13.1c-0.4,6.5-5.5,10.9-13,11.3c-2.8,0.2-5.5,0-8.3,0c-2.7,0-5.5,0-9.9,0c2.3,2.4,3.6,3.9,5,5.3C74.7,57.4,92.3,75,109.8,92.7c2.3,2.3,4.6,5.2,5.4,8.2c1.5,5.4-0.5,10.3-5.6,13.1c-5.2,2.9-10.4,2.3-14.7-1.9c-9.3-9.1-18.5-18.4-27.7-27.6C56.8,74,46.4,63.6,34.4,51.6c0,7.6,0.2,13.6-0.1,19.5c-0.3,5.6-3.1,9.7-8.7,11.5c-4.9,1.6-8.9,0.1-12.4-3.4c-1.2-1.2-2.2-2.6-3.3-4c0-21.7,0-43.3,0-65.3C31.4,10,52.7,10,74.1,10z"/><path fill="#000000" d="M246,75.2c-0.8,1-1.6,2.1-2.5,3.1c-3.5,4-7.8,6-13.2,4.3c-5.6-1.8-8.4-5.8-8.7-11.4c-0.3-5.9-0.1-11.7-0.1-19c-2.6,2.4-4.1,3.7-5.6,5.1c-18,18-36,36.1-54.1,54.1c-4.8,4.8-10.6,5.8-15.6,2.7c-5-3-7.1-7.7-5.5-13.2c0.9-3,3.1-5.9,5.4-8.2c17.4-17.6,34.9-35,52.3-52.5c1.5-1.5,2.9-3.1,5.4-5.7c-6.1,0-11,0-15.8,0c-8.8-0.1-13.3-3.1-15-9.6c-1.5-6.1,1.2-10.6,8.8-14.9c21.3,0,42.7,0,64,0C246,31.7,246,53.5,246,75.2z"/></g></g>
</svg>